<svg width="1024" height="177" viewBox="0 0 1024 177" fill="none" xmlns="http://www.w3.org/2000/svg">
<path fill-rule="evenodd" clip-rule="evenodd" d="M1024 73L981.333 86.4815C938.667 99.963 853.333 126.926 768 128.852C682.667 130.778 597.333 107.667 512 96.1111C426.667 84.5556 341.333 84.5556 256 88.4074C170.667 92.2593 85.3333 99.963 42.6666 103.815L0 107.667V177H42.6666C85.3333 177 170.667 177 256 177C341.333 177 426.667 177 512 177C597.333 177 682.667 177 768 177C853.333 177 938.667 177 981.333 177H1024V73Z" fill="#3F3D56"/>
<path d="M495.332 28.6313C495.332 29.4565 495.229 30.2085 495.024 30.8872C494.819 31.561 494.507 32.1421 494.087 32.6304C493.672 33.1187 493.145 33.4946 492.505 33.7583C491.865 34.0171 491.108 34.1465 490.234 34.1465C489.36 34.1465 488.604 34.0171 487.964 33.7583C487.324 33.4946 486.794 33.1187 486.375 32.6304C485.959 32.1421 485.649 31.5586 485.444 30.8799C485.239 30.2012 485.137 29.4468 485.137 28.6167C485.137 27.5083 485.317 26.5439 485.679 25.7236C486.045 24.8984 486.606 24.2588 487.363 23.8047C488.12 23.3506 489.082 23.1235 490.249 23.1235C491.411 23.1235 492.366 23.3506 493.113 23.8047C493.865 24.2588 494.421 24.8984 494.783 25.7236C495.149 26.5488 495.332 27.5181 495.332 28.6313ZM487.517 28.6313C487.517 29.3784 487.61 30.0229 487.795 30.5649C487.986 31.1021 488.281 31.5171 488.682 31.8101C489.082 32.0981 489.6 32.2422 490.234 32.2422C490.879 32.2422 491.401 32.0981 491.802 31.8101C492.202 31.5171 492.493 31.1021 492.673 30.5649C492.859 30.0229 492.952 29.3784 492.952 28.6313C492.952 27.5083 492.742 26.6245 492.322 25.98C491.902 25.3354 491.211 25.0132 490.249 25.0132C489.609 25.0132 489.087 25.1597 488.682 25.4526C488.281 25.7407 487.986 26.1558 487.795 26.6978C487.61 27.2349 487.517 27.8794 487.517 28.6313ZM501.902 27.4888H499.968V34H497.734V27.4888H496.504V26.4121L497.734 25.8115V25.2109C497.734 24.5127 497.852 23.9707 498.086 23.585C498.325 23.1943 498.66 22.9209 499.089 22.7646C499.524 22.6035 500.037 22.5229 500.627 22.5229C501.062 22.5229 501.458 22.5596 501.814 22.6328C502.17 22.7012 502.461 22.7793 502.686 22.8672L502.114 24.5078C501.943 24.4541 501.758 24.4053 501.558 24.3613C501.357 24.3174 501.128 24.2954 500.869 24.2954C500.557 24.2954 500.327 24.3906 500.181 24.5811C500.039 24.7666 499.968 25.0059 499.968 25.2988V25.8115H501.902V27.4888ZM506.567 25.6577C507.324 25.6577 507.976 25.8042 508.523 26.0972C509.07 26.3853 509.492 26.8052 509.79 27.3569C510.088 27.9087 510.237 28.5825 510.237 29.3784V30.4624H504.956C504.98 31.0923 505.168 31.5879 505.52 31.9492C505.876 32.3057 506.37 32.4839 507 32.4839C507.522 32.4839 508 32.4302 508.435 32.3228C508.87 32.2153 509.316 32.0542 509.775 31.8394V33.5679C509.37 33.7681 508.945 33.9146 508.501 34.0073C508.062 34.1001 507.527 34.1465 506.897 34.1465C506.077 34.1465 505.349 33.9951 504.714 33.6924C504.084 33.3896 503.589 32.9282 503.228 32.3081C502.871 31.688 502.693 30.9067 502.693 29.9644C502.693 29.0073 502.854 28.2114 503.176 27.5767C503.503 26.937 503.958 26.4585 504.539 26.1411C505.12 25.8188 505.796 25.6577 506.567 25.6577ZM506.582 27.2471C506.147 27.2471 505.786 27.3862 505.498 27.6646C505.215 27.9429 505.051 28.3799 505.007 28.9756H508.142C508.137 28.6436 508.076 28.3481 507.959 28.0894C507.847 27.8306 507.676 27.6255 507.446 27.4741C507.222 27.3228 506.934 27.2471 506.582 27.2471ZM516.624 25.6577C516.736 25.6577 516.865 25.665 517.012 25.6797C517.163 25.6895 517.285 25.7041 517.378 25.7236L517.209 27.8184C517.136 27.7939 517.031 27.7769 516.895 27.7671C516.763 27.7524 516.648 27.7451 516.55 27.7451C516.262 27.7451 515.981 27.7817 515.708 27.855C515.439 27.9282 515.198 28.0479 514.983 28.2139C514.768 28.375 514.597 28.5898 514.47 28.8584C514.348 29.1221 514.287 29.4468 514.287 29.8325V34H512.053V25.8115H513.745L514.075 27.1885H514.185C514.346 26.9102 514.546 26.6562 514.785 26.4268C515.029 26.1924 515.305 26.0068 515.613 25.8701C515.925 25.7285 516.262 25.6577 516.624 25.6577ZM522.314 32.3667C522.559 32.3667 522.795 32.3423 523.025 32.2935C523.259 32.2446 523.491 32.1836 523.721 32.1104V33.7729C523.481 33.8804 523.184 33.9683 522.827 34.0366C522.476 34.1099 522.09 34.1465 521.67 34.1465C521.182 34.1465 520.742 34.0684 520.352 33.9121C519.966 33.751 519.661 33.4751 519.436 33.0845C519.216 32.689 519.106 32.1396 519.106 31.4365V27.4888H518.037V26.5439L519.268 25.7969L519.912 24.0684H521.34V25.8115H523.633V27.4888H521.34V31.4365C521.34 31.749 521.428 31.9834 521.604 32.1396C521.785 32.291 522.021 32.3667 522.314 32.3667ZM528.738 25.6431C529.836 25.6431 530.679 25.8823 531.265 26.3608C531.851 26.8394 532.144 27.5669 532.144 28.5435V34H530.583L530.151 32.8867H530.093C529.858 33.1797 529.619 33.4189 529.375 33.6045C529.131 33.79 528.85 33.9268 528.533 34.0146C528.215 34.1025 527.83 34.1465 527.375 34.1465C526.892 34.1465 526.458 34.0537 526.072 33.8682C525.691 33.6826 525.391 33.3994 525.171 33.0186C524.951 32.6328 524.841 32.1445 524.841 31.5537C524.841 30.6846 525.146 30.0449 525.757 29.6348C526.367 29.2197 527.283 28.9902 528.503 28.9463L529.924 28.9023V28.5435C529.924 28.1138 529.812 27.7988 529.587 27.5986C529.363 27.3984 529.05 27.2983 528.65 27.2983C528.254 27.2983 527.866 27.3545 527.485 27.4668C527.104 27.5791 526.724 27.7207 526.343 27.8916L525.603 26.3828C526.038 26.1533 526.523 25.9727 527.061 25.8408C527.603 25.709 528.162 25.6431 528.738 25.6431ZM529.924 30.2061L529.06 30.2354C528.337 30.2549 527.834 30.3843 527.551 30.6235C527.273 30.8628 527.134 31.1777 527.134 31.5684C527.134 31.9102 527.234 32.1543 527.434 32.3008C527.634 32.4424 527.896 32.5132 528.218 32.5132C528.696 32.5132 529.099 32.3716 529.426 32.0884C529.758 31.8052 529.924 31.4023 529.924 30.8799V30.2061ZM540.164 31.5684C540.164 32.125 540.032 32.5962 539.768 32.9819C539.509 33.3628 539.121 33.6533 538.604 33.8535C538.086 34.0488 537.441 34.1465 536.67 34.1465C536.099 34.1465 535.608 34.1099 535.198 34.0366C534.792 33.9634 534.382 33.8413 533.967 33.6704V31.8247C534.412 32.0249 534.888 32.1909 535.396 32.3228C535.908 32.4497 536.357 32.5132 536.743 32.5132C537.178 32.5132 537.488 32.4497 537.673 32.3228C537.864 32.1909 537.959 32.02 537.959 31.8101C537.959 31.6733 537.92 31.5513 537.842 31.4438C537.769 31.3315 537.607 31.207 537.358 31.0703C537.109 30.9287 536.719 30.7456 536.187 30.521C535.674 30.3062 535.251 30.0889 534.919 29.8691C534.592 29.6494 534.348 29.3906 534.187 29.0928C534.031 28.79 533.953 28.4067 533.953 27.9429C533.953 27.186 534.246 26.6172 534.832 26.2363C535.422 25.8506 536.211 25.6577 537.197 25.6577C537.705 25.6577 538.188 25.709 538.647 25.8115C539.111 25.9141 539.587 26.0776 540.076 26.3022L539.402 27.9136C538.997 27.7378 538.613 27.5938 538.252 27.4814C537.896 27.3691 537.532 27.313 537.161 27.313C536.833 27.313 536.587 27.3569 536.421 27.4448C536.255 27.5327 536.172 27.667 536.172 27.8477C536.172 27.9795 536.213 28.0967 536.296 28.1992C536.384 28.3018 536.55 28.4165 536.794 28.5435C537.043 28.6655 537.407 28.8242 537.886 29.0195C538.35 29.21 538.752 29.4102 539.094 29.6201C539.436 29.8252 539.7 30.0815 539.885 30.3892C540.071 30.6919 540.164 31.085 540.164 31.5684Z" fill="#3F3D56"/>
<path d="M386.668 28.5435C386.668 29.7495 386.437 30.7578 385.973 31.5684C385.514 32.374 384.847 32.9819 383.973 33.3921C383.099 33.7974 382.047 34 380.816 34H377.784V23.292H381.146C382.269 23.292 383.243 23.4922 384.068 23.8926C384.894 24.2881 385.533 24.8765 385.987 25.6577C386.441 26.4341 386.668 27.396 386.668 28.5435ZM384.31 28.6021C384.31 27.811 384.193 27.1616 383.958 26.6538C383.729 26.1411 383.387 25.7627 382.933 25.5186C382.484 25.2744 381.927 25.1523 381.263 25.1523H380.055V32.125H381.029C382.137 32.125 382.96 31.8296 383.497 31.2388C384.039 30.6479 384.31 29.769 384.31 28.6021ZM392.088 25.6577C392.845 25.6577 393.497 25.8042 394.044 26.0972C394.591 26.3853 395.013 26.8052 395.311 27.3569C395.609 27.9087 395.758 28.5825 395.758 29.3784V30.4624H390.477C390.501 31.0923 390.689 31.5879 391.041 31.9492C391.397 32.3057 391.891 32.4839 392.521 32.4839C393.043 32.4839 393.521 32.4302 393.956 32.3228C394.391 32.2153 394.837 32.0542 395.296 31.8394V33.5679C394.891 33.7681 394.466 33.9146 394.022 34.0073C393.583 34.1001 393.048 34.1465 392.418 34.1465C391.598 34.1465 390.87 33.9951 390.235 33.6924C389.605 33.3896 389.11 32.9282 388.749 32.3081C388.392 31.688 388.214 30.9067 388.214 29.9644C388.214 29.0073 388.375 28.2114 388.697 27.5767C389.024 26.937 389.479 26.4585 390.06 26.1411C390.641 25.8188 391.317 25.6577 392.088 25.6577ZM392.103 27.2471C391.668 27.2471 391.307 27.3862 391.019 27.6646C390.736 27.9429 390.572 28.3799 390.528 28.9756H393.663C393.658 28.6436 393.597 28.3481 393.48 28.0894C393.368 27.8306 393.197 27.6255 392.967 27.4741C392.743 27.3228 392.455 27.2471 392.103 27.2471ZM403.287 31.5684C403.287 32.125 403.155 32.5962 402.892 32.9819C402.633 33.3628 402.245 33.6533 401.727 33.8535C401.209 34.0488 400.565 34.1465 399.793 34.1465C399.222 34.1465 398.731 34.1099 398.321 34.0366C397.916 33.9634 397.506 33.8413 397.091 33.6704V31.8247C397.535 32.0249 398.011 32.1909 398.519 32.3228C399.032 32.4497 399.481 32.5132 399.867 32.5132C400.301 32.5132 400.611 32.4497 400.797 32.3228C400.987 32.1909 401.083 32.02 401.083 31.8101C401.083 31.6733 401.043 31.5513 400.965 31.4438C400.892 31.3315 400.731 31.207 400.482 31.0703C400.233 30.9287 399.842 30.7456 399.31 30.521C398.797 30.3062 398.375 30.0889 398.043 29.8691C397.716 29.6494 397.472 29.3906 397.311 29.0928C397.154 28.79 397.076 28.4067 397.076 27.9429C397.076 27.186 397.369 26.6172 397.955 26.2363C398.546 25.8506 399.334 25.6577 400.321 25.6577C400.829 25.6577 401.312 25.709 401.771 25.8115C402.235 25.9141 402.711 26.0776 403.199 26.3022L402.525 27.9136C402.12 27.7378 401.737 27.5938 401.375 27.4814C401.019 27.3691 400.655 27.313 400.284 27.313C399.957 27.313 399.71 27.3569 399.544 27.4448C399.378 27.5327 399.295 27.667 399.295 27.8477C399.295 27.9795 399.337 28.0967 399.42 28.1992C399.508 28.3018 399.674 28.4165 399.918 28.5435C400.167 28.6655 400.531 28.8242 401.009 29.0195C401.473 29.21 401.876 29.4102 402.218 29.6201C402.56 29.8252 402.823 30.0815 403.009 30.3892C403.194 30.6919 403.287 31.085 403.287 31.5684ZM408.48 32.3667C408.724 32.3667 408.961 32.3423 409.19 32.2935C409.425 32.2446 409.657 32.1836 409.886 32.1104V33.7729C409.647 33.8804 409.349 33.9683 408.993 34.0366C408.641 34.1099 408.255 34.1465 407.835 34.1465C407.347 34.1465 406.908 34.0684 406.517 33.9121C406.131 33.751 405.826 33.4751 405.602 33.0845C405.382 32.689 405.272 32.1396 405.272 31.4365V27.4888H404.203V26.5439L405.433 25.7969L406.078 24.0684H407.506V25.8115H409.798V27.4888H407.506V31.4365C407.506 31.749 407.594 31.9834 407.77 32.1396C407.95 32.291 408.187 32.3667 408.48 32.3667ZM413.783 25.8115V34H411.549V25.8115H413.783ZM412.669 22.6035C413.001 22.6035 413.287 22.6816 413.526 22.8379C413.766 22.9893 413.885 23.2749 413.885 23.6948C413.885 24.1099 413.766 24.3979 413.526 24.5591C413.287 24.7153 413.001 24.7935 412.669 24.7935C412.333 24.7935 412.044 24.7153 411.805 24.5591C411.571 24.3979 411.454 24.1099 411.454 23.6948C411.454 23.2749 411.571 22.9893 411.805 22.8379C412.044 22.6816 412.333 22.6035 412.669 22.6035ZM420.785 25.6577C421.659 25.6577 422.362 25.897 422.894 26.3755C423.426 26.8491 423.692 27.6108 423.692 28.6606V34H421.458V29.2173C421.458 28.6313 421.351 28.1895 421.136 27.8916C420.926 27.5938 420.594 27.4448 420.14 27.4448C419.457 27.4448 418.99 27.6768 418.741 28.1406C418.492 28.6045 418.368 29.2734 418.368 30.1475V34H416.134V25.8115H417.84L418.141 26.8589H418.265C418.441 26.5757 418.658 26.3462 418.917 26.1704C419.181 25.9946 419.471 25.8652 419.789 25.7822C420.111 25.6992 420.443 25.6577 420.785 25.6577ZM433.434 29.8911C433.434 30.5747 433.341 31.1802 433.155 31.7075C432.975 32.2349 432.708 32.6816 432.357 33.0479C432.01 33.4092 431.59 33.6826 431.097 33.8682C430.609 34.0537 430.057 34.1465 429.442 34.1465C428.866 34.1465 428.336 34.0537 427.853 33.8682C427.374 33.6826 426.957 33.4092 426.6 33.0479C426.249 32.6816 425.975 32.2349 425.78 31.7075C425.589 31.1802 425.494 30.5747 425.494 29.8911C425.494 28.9829 425.655 28.2139 425.978 27.584C426.3 26.9541 426.759 26.4756 427.354 26.1484C427.95 25.8213 428.661 25.6577 429.486 25.6577C430.252 25.6577 430.931 25.8213 431.522 26.1484C432.118 26.4756 432.584 26.9541 432.921 27.584C433.263 28.2139 433.434 28.9829 433.434 29.8911ZM427.772 29.8911C427.772 30.4282 427.831 30.8799 427.948 31.2461C428.065 31.6123 428.248 31.8882 428.497 32.0737C428.746 32.2593 429.071 32.3521 429.471 32.3521C429.867 32.3521 430.187 32.2593 430.431 32.0737C430.68 31.8882 430.86 31.6123 430.973 31.2461C431.09 30.8799 431.148 30.4282 431.148 29.8911C431.148 29.3491 431.09 28.8999 430.973 28.5435C430.86 28.1821 430.68 27.9111 430.431 27.7305C430.182 27.5498 429.857 27.4595 429.457 27.4595C428.866 27.4595 428.436 27.6621 428.167 28.0674C427.904 28.4727 427.772 29.0806 427.772 29.8911ZM440.992 31.5684C440.992 32.125 440.86 32.5962 440.597 32.9819C440.338 33.3628 439.95 33.6533 439.432 33.8535C438.915 34.0488 438.27 34.1465 437.499 34.1465C436.927 34.1465 436.437 34.1099 436.026 34.0366C435.621 33.9634 435.211 33.8413 434.796 33.6704V31.8247C435.24 32.0249 435.716 32.1909 436.224 32.3228C436.737 32.4497 437.186 32.5132 437.572 32.5132C438.006 32.5132 438.316 32.4497 438.502 32.3228C438.692 32.1909 438.788 32.02 438.788 31.8101C438.788 31.6733 438.749 31.5513 438.67 31.4438C438.597 31.3315 438.436 31.207 438.187 31.0703C437.938 30.9287 437.547 30.7456 437.015 30.521C436.502 30.3062 436.08 30.0889 435.748 29.8691C435.421 29.6494 435.177 29.3906 435.016 29.0928C434.859 28.79 434.781 28.4067 434.781 27.9429C434.781 27.186 435.074 26.6172 435.66 26.2363C436.251 25.8506 437.04 25.6577 438.026 25.6577C438.534 25.6577 439.017 25.709 439.476 25.8115C439.94 25.9141 440.416 26.0776 440.904 26.3022L440.23 27.9136C439.825 27.7378 439.442 27.5938 439.081 27.4814C438.724 27.3691 438.36 27.313 437.989 27.313C437.662 27.313 437.416 27.3569 437.25 27.4448C437.083 27.5327 437 27.667 437 27.8477C437 27.9795 437.042 28.0967 437.125 28.1992C437.213 28.3018 437.379 28.4165 437.623 28.5435C437.872 28.6655 438.236 28.8242 438.714 29.0195C439.178 29.21 439.581 29.4102 439.923 29.6201C440.265 29.8252 440.528 30.0815 440.714 30.3892C440.899 30.6919 440.992 31.085 440.992 31.5684Z" fill="#3F3D56"/>
<path d="M589.345 25.0278C588.91 25.0278 588.524 25.1133 588.188 25.2842C587.855 25.4502 587.575 25.6919 587.345 26.0093C587.121 26.3267 586.95 26.71 586.833 27.1592C586.715 27.6084 586.657 28.1138 586.657 28.6753C586.657 29.4321 586.75 30.0791 586.935 30.6162C587.125 31.1484 587.418 31.5562 587.814 31.8394C588.209 32.1177 588.72 32.2568 589.345 32.2568C589.779 32.2568 590.214 32.208 590.648 32.1104C591.088 32.0127 591.564 31.8735 592.077 31.6929V33.5972C591.603 33.7925 591.137 33.9316 590.678 34.0146C590.219 34.1025 589.704 34.1465 589.132 34.1465C588.029 34.1465 587.121 33.9194 586.408 33.4653C585.7 33.0063 585.175 32.3667 584.833 31.5464C584.491 30.7212 584.32 29.7593 584.32 28.6606C584.32 27.8501 584.43 27.1079 584.65 26.4341C584.87 25.7603 585.192 25.1768 585.617 24.6836C586.042 24.1904 586.566 23.8096 587.191 23.541C587.816 23.2725 588.534 23.1382 589.345 23.1382C589.877 23.1382 590.409 23.2065 590.941 23.3433C591.479 23.4751 591.991 23.6582 592.479 23.8926L591.747 25.7383C591.347 25.5479 590.944 25.3818 590.539 25.2402C590.133 25.0986 589.735 25.0278 589.345 25.0278ZM601.627 29.8911C601.627 30.5747 601.535 31.1802 601.349 31.7075C601.168 32.2349 600.902 32.6816 600.551 33.0479C600.204 33.4092 599.784 33.6826 599.291 33.8682C598.803 34.0537 598.251 34.1465 597.636 34.1465C597.06 34.1465 596.53 34.0537 596.046 33.8682C595.568 33.6826 595.15 33.4092 594.794 33.0479C594.442 32.6816 594.169 32.2349 593.974 31.7075C593.783 31.1802 593.688 30.5747 593.688 29.8911C593.688 28.9829 593.849 28.2139 594.171 27.584C594.494 26.9541 594.953 26.4756 595.548 26.1484C596.144 25.8213 596.854 25.6577 597.68 25.6577C598.446 25.6577 599.125 25.8213 599.716 26.1484C600.312 26.4756 600.778 26.9541 601.115 27.584C601.457 28.2139 601.627 28.9829 601.627 29.8911ZM595.966 29.8911C595.966 30.4282 596.024 30.8799 596.142 31.2461C596.259 31.6123 596.442 31.8882 596.691 32.0737C596.94 32.2593 597.265 32.3521 597.665 32.3521C598.061 32.3521 598.38 32.2593 598.625 32.0737C598.874 31.8882 599.054 31.6123 599.167 31.2461C599.284 30.8799 599.342 30.4282 599.342 29.8911C599.342 29.3491 599.284 28.8999 599.167 28.5435C599.054 28.1821 598.874 27.9111 598.625 27.7305C598.375 27.5498 598.051 27.4595 597.65 27.4595C597.06 27.4595 596.63 27.6621 596.361 28.0674C596.098 28.4727 595.966 29.0806 595.966 29.8911ZM608.124 25.6577C608.998 25.6577 609.701 25.897 610.233 26.3755C610.766 26.8491 611.032 27.6108 611.032 28.6606V34H608.798V29.2173C608.798 28.6313 608.69 28.1895 608.476 27.8916C608.266 27.5938 607.934 27.4448 607.479 27.4448C606.796 27.4448 606.33 27.6768 606.081 28.1406C605.832 28.6045 605.707 29.2734 605.707 30.1475V34H603.473V25.8115H605.18L605.48 26.8589H605.604C605.78 26.5757 605.998 26.3462 606.256 26.1704C606.52 25.9946 606.811 25.8652 607.128 25.7822C607.45 25.6992 607.782 25.6577 608.124 25.6577ZM616.781 32.3667C617.025 32.3667 617.262 32.3423 617.492 32.2935C617.726 32.2446 617.958 32.1836 618.188 32.1104V33.7729C617.948 33.8804 617.65 33.9683 617.294 34.0366C616.942 34.1099 616.557 34.1465 616.137 34.1465C615.648 34.1465 615.209 34.0684 614.818 33.9121C614.433 33.751 614.127 33.4751 613.903 33.0845C613.683 32.689 613.573 32.1396 613.573 31.4365V27.4888H612.504V26.5439L613.734 25.7969L614.379 24.0684H615.807V25.8115H618.1V27.4888H615.807V31.4365C615.807 31.749 615.895 31.9834 616.071 32.1396C616.251 32.291 616.488 32.3667 616.781 32.3667ZM623.205 25.6431C624.303 25.6431 625.146 25.8823 625.731 26.3608C626.317 26.8394 626.61 27.5669 626.61 28.5435V34H625.05L624.618 32.8867H624.56C624.325 33.1797 624.086 33.4189 623.842 33.6045C623.598 33.79 623.317 33.9268 623 34.0146C622.682 34.1025 622.296 34.1465 621.842 34.1465C621.359 34.1465 620.924 34.0537 620.539 33.8682C620.158 33.6826 619.857 33.3994 619.638 33.0186C619.418 32.6328 619.308 32.1445 619.308 31.5537C619.308 30.6846 619.613 30.0449 620.224 29.6348C620.834 29.2197 621.75 28.9902 622.97 28.9463L624.391 28.9023V28.5435C624.391 28.1138 624.279 27.7988 624.054 27.5986C623.83 27.3984 623.517 27.2983 623.117 27.2983C622.721 27.2983 622.333 27.3545 621.952 27.4668C621.571 27.5791 621.19 27.7207 620.81 27.8916L620.07 26.3828C620.504 26.1533 620.99 25.9727 621.527 25.8408C622.069 25.709 622.628 25.6431 623.205 25.6431ZM624.391 30.2061L623.527 30.2354C622.804 30.2549 622.301 30.3843 622.018 30.6235C621.74 30.8628 621.601 31.1777 621.601 31.5684C621.601 31.9102 621.701 32.1543 621.901 32.3008C622.101 32.4424 622.362 32.5132 622.685 32.5132C623.163 32.5132 623.566 32.3716 623.893 32.0884C624.225 31.8052 624.391 31.4023 624.391 30.8799V30.2061ZM632.367 32.3667C632.611 32.3667 632.848 32.3423 633.078 32.2935C633.312 32.2446 633.544 32.1836 633.773 32.1104V33.7729C633.534 33.8804 633.236 33.9683 632.88 34.0366C632.528 34.1099 632.143 34.1465 631.723 34.1465C631.234 34.1465 630.795 34.0684 630.404 33.9121C630.019 33.751 629.713 33.4751 629.489 33.0845C629.269 32.689 629.159 32.1396 629.159 31.4365V27.4888H628.09V26.5439L629.32 25.7969L629.965 24.0684H631.393V25.8115H633.686V27.4888H631.393V31.4365C631.393 31.749 631.481 31.9834 631.657 32.1396C631.837 32.291 632.074 32.3667 632.367 32.3667ZM642.877 29.8911C642.877 30.5747 642.785 31.1802 642.599 31.7075C642.418 32.2349 642.152 32.6816 641.801 33.0479C641.454 33.4092 641.034 33.6826 640.541 33.8682C640.053 34.0537 639.501 34.1465 638.886 34.1465C638.31 34.1465 637.78 34.0537 637.296 33.8682C636.818 33.6826 636.4 33.4092 636.044 33.0479C635.692 32.6816 635.419 32.2349 635.224 31.7075C635.033 31.1802 634.938 30.5747 634.938 29.8911C634.938 28.9829 635.099 28.2139 635.421 27.584C635.744 26.9541 636.203 26.4756 636.798 26.1484C637.394 25.8213 638.104 25.6577 638.93 25.6577C639.696 25.6577 640.375 25.8213 640.966 26.1484C641.562 26.4756 642.028 26.9541 642.365 27.584C642.707 28.2139 642.877 28.9829 642.877 29.8911ZM637.216 29.8911C637.216 30.4282 637.274 30.8799 637.392 31.2461C637.509 31.6123 637.692 31.8882 637.941 32.0737C638.19 32.2593 638.515 32.3521 638.915 32.3521C639.311 32.3521 639.63 32.2593 639.875 32.0737C640.124 31.8882 640.304 31.6123 640.417 31.2461C640.534 30.8799 640.592 30.4282 640.592 29.8911C640.592 29.3491 640.534 28.8999 640.417 28.5435C640.304 28.1821 640.124 27.9111 639.875 27.7305C639.625 27.5498 639.301 27.4595 638.9 27.4595C638.31 27.4595 637.88 27.6621 637.611 28.0674C637.348 28.4727 637.216 29.0806 637.216 29.8911Z" fill="#3F3D56"/>
<path d="M317 1H708" stroke="#ECEFF2"/>
</svg>
